<?xml version="1.0" encoding="UTF-8"?>
<svg version="1.1" xmlns="http://www.w3.org/2000/svg" width="512" height="512">
<path d="M0 0 C10.23 0 20.46 0 31 0 C31 49.83 31 99.66 31 151 C80.17 151 129.34 151 180 151 C180 101.17 180 51.34 180 0 C190.23 0 200.46 0 211 0 C211 49.83 211 99.66 211 151 C260.83 151 310.66 151 362 151 C362 161.23 362 171.46 362 182 C312.17 182 262.34 182 211 182 C211 230.84 211 279.68 211 330 C260.83 330 310.66 330 362 330 C362 340.23 362 350.46 362 361 C312.17 361 262.34 361 211 361 C211 410.83 211 460.66 211 512 C200.77 512 190.54 512 180 512 C180 462.17 180 412.34 180 361 C130.83 361 81.66 361 31 361 C31 410.83 31 460.66 31 512 C20.77 512 10.54 512 0 512 C0 462.17 0 412.34 0 361 C-49.5 361 -99 361 -150 361 C-150 350.77 -150 340.54 -150 330 C-100.5 330 -51 330 0 330 C0 281.16 0 232.32 0 182 C-49.5 182 -99 182 -150 182 C-150 171.77 -150 161.54 -150 151 C-100.5 151 -51 151 0 151 C0 101.17 0 51.34 0 0 Z M31 182 C31 230.84 31 279.68 31 330 C80.17 330 129.34 330 180 330 C180 281.16 180 232.32 180 182 C130.83 182 81.66 182 31 182 Z " fill="#3C3A41" transform="translate(150,0)"/>
<path d="M0 0 C10.23 0 20.46 0 31 0 C31 49.83 31 99.66 31 151 C55.42 151 79.84 151 105 151 C105 161.23 105 171.46 105 182 C80.58 182 56.16 182 31 182 C31 230.84 31 279.68 31 330 C55.42 330 79.84 330 105 330 C105 340.23 105 350.46 105 361 C80.58 361 56.16 361 31 361 C31 410.83 31 460.66 31 512 C20.77 512 10.54 512 0 512 C0 462.17 0 412.34 0 361 C-49.5 361 -99 361 -150 361 C-150 350.77 -150 340.54 -150 330 C-100.5 330 -51 330 0 330 C0 281.16 0 232.32 0 182 C-49.5 182 -99 182 -150 182 C-150 171.77 -150 161.54 -150 151 C-100.5 151 -51 151 0 151 C0 101.17 0 51.34 0 0 Z " fill="#57545C" transform="translate(150,0)"/>
<path d="M0 0 C13.44612627 11.55669222 21.72922857 25.86461551 23.15625 43.69140625 C23.82780573 62.84157622 16.92186761 78.40551744 4.171875 92.421875 C-6.70203719 103.00773653 -22.71511702 108.32964655 -37.59765625 108.89453125 C-54.25171503 108.26240639 -69.81099225 101.93069979 -81.69921875 90.203125 C-94.38687241 76.00700437 -99.14945399 59.39235487 -98.09765625 40.51953125 C-95.90881642 23.51084011 -87.42051556 10.26662699 -74.58984375 -0.60546875 C-52.65455921 -16.96876783 -21.5212157 -17.23325595 0 0 Z M-61.09765625 29.51953125 C-65.67383394 36.90744001 -68.03769237 43.82088712 -67.09765625 52.51953125 C-64.86914343 61.59912919 -60.97835585 68.08552858 -53.22265625 73.33203125 C-45.64103268 77.72215232 -37.70901817 78.57862173 -29.22265625 76.45703125 C-21.23408099 73.85496868 -15.11137934 68.82155618 -11.02734375 61.484375 C-7.2837355 53.57246345 -7.00500667 46.19597179 -9.66015625 37.95703125 C-13.2713486 28.92905037 -19.2122104 23.34634989 -28.09765625 19.51953125 C-40.31946337 15.69868574 -52.91958114 19.90574962 -61.09765625 29.51953125 Z " fill="#FE4311" transform="translate(293.09765625,28.48046875)"/>
<path d="M0 0 C1.64042333 1.14487878 3.26798181 2.30868617 4.875 3.5 C5.90625 4.221875 6.9375 4.94375 8 5.6875 C20.19013489 16.46428591 26.68464562 31.95772943 28.1953125 47.875 C28.77754624 64.95385631 23.04414014 80.05953183 12.13671875 93.1484375 C5.62968194 99.91395763 -2.48505111 104.91923625 -11.125 108.5 C-11.89457031 108.8196875 -12.66414063 109.139375 -13.45703125 109.46875 C-26.85409189 114.02586039 -44.21730626 113.12361899 -57.125 107.5 C-61.67255101 105.09040162 -65.89734833 102.4438309 -70.125 99.5 C-71.1975 98.7575 -72.27 98.015 -73.375 97.25 C-85.93867625 84.68632375 -92.95599514 69.47830937 -93.5625 51.6875 C-93.13176337 34.87004379 -86.80489024 19.67146812 -75.125 7.5 C-54.25024284 -11.03891323 -24.03433773 -14.76302734 0 0 Z M-55.65625 32.6015625 C-61.23678663 39.81470293 -63.02977059 47.50399528 -62.125 56.5 C-59.63957113 66.44171548 -53.68953617 73.38077766 -45.01953125 78.58984375 C-38.49404705 81.72476709 -30.25999501 81.40796394 -23.33203125 79.88671875 C-15.36903908 77.08423933 -9.57482741 71.71812721 -5.6875 64.25 C-2.28066233 56.85578729 -1.91446819 49.054165 -4.6875 41.375 C-8.29832799 33.3044827 -14.15033981 27.33112541 -22.125 23.5 C-34.69053113 19.32942757 -46.90538133 23.14897323 -55.65625 32.6015625 Z " fill="#C01700" transform="translate(288.125,204.5)"/>
<path d="M0 0 C0.74378906 0.57621094 1.48757813 1.15242188 2.25390625 1.74609375 C3.08019531 2.36355469 3.90648437 2.98101562 4.7578125 3.6171875 C12.87783201 10.54271274 17.80119986 19.81045764 21.25390625 29.74609375 C21.66640625 30.88046875 22.07890625 32.01484375 22.50390625 33.18359375 C26.19681686 50.72491914 23.16560465 67.32412762 13.87890625 82.62109375 C4.59285333 96.32247674 -9.43458414 105.06202914 -25.61328125 108.32421875 C-44.01241926 110.80190816 -60.62938789 106.34838132 -75.62109375 95.43359375 C-86.9301066 85.99193182 -94.76877078 72.3782837 -96.74609375 57.74609375 C-98.03252291 40.47118787 -95.15790632 25.01301058 -84.60546875 10.87890625 C-62.61668275 -14.41588604 -27.46566836 -20.12290084 0 0 Z M-60.74609375 30.74609375 C-65.71832228 38.47301953 -66.47921056 45.74970313 -65.74609375 54.74609375 C-63.70030225 62.86763952 -58.18596222 69.02286455 -51.74609375 74.12109375 C-44.34501985 78.13000878 -36.2388543 79.15326385 -28.0625 77.05859375 C-19.62364101 73.97590553 -14.62341772 69.86387565 -10.37109375 61.93359375 C-6.54249029 53.64169855 -5.64531193 46.44378676 -8.74609375 37.74609375 C-12.53407243 29.54389798 -19.35199841 23.10373189 -27.74609375 19.74609375 C-40.42194368 16.07676877 -52.31861795 21.05712469 -60.74609375 30.74609375 Z " fill="#BE1500" transform="translate(471.74609375,387.25390625)"/>
<path d="M0 0 C11.12499949 9.27083291 18.77300915 22.98863401 20.8125 37.3125 C22.12722967 54.5754722 19.21275713 70.0610607 8.671875 84.1796875 C-2.53181772 97.0678515 -16.96158257 105.77447166 -34.1875 107.3125 C-49.94780657 108.1957396 -65.13838716 104.2758433 -77.3671875 93.96484375 C-79.73535247 91.81520044 -82.01438712 89.66181122 -84.1875 87.3125 C-84.89132813 86.59900391 -84.89132813 86.59900391 -85.609375 85.87109375 C-95.82558438 74.94396258 -100.17073833 59.9957204 -100.1875 45.3125 C-99.20650615 29.40256332 -93.27674117 13.13362687 -81.3828125 2.06640625 C-56.48522576 -17.82508209 -25.85778541 -19.2165001 0 0 Z M-62.1875 27.3125 C-67.40239281 35.58317841 -70.25531182 43.14963013 -68.5625 52.875 C-66.36836653 61.17517594 -61.28472013 67.56097127 -54.1875 72.3125 C-45.6527175 76.53012575 -38.80172682 77.62468697 -29.75 74.8125 C-21.78691081 71.64272663 -16.09652955 66.75656659 -12.125 59.125 C-9.06916177 51.47479387 -8.69327078 43.22156381 -11.75 35.5 C-15.88214198 27.55694262 -21.99434826 21.34903009 -30.375 18.0625 C-42.11414174 15.75316064 -54.2340216 17.59373736 -62.1875 27.3125 Z " fill="#FF4311" transform="translate(115.1875,29.6875)"/>
<path d="M0 0 C2.39450718 0.8961499 3.58435736 1.92234024 5.37637329 3.73638916 C5.99671448 4.35695694 6.61705566 4.97752472 7.25619507 5.61689758 C7.91363708 6.28982346 8.5710791 6.96274933 9.2484436 7.65606689 C10.27207001 8.68606056 10.27207001 8.68606056 11.31637573 9.73686218 C13.49358057 11.9308548 15.66012141 14.1350498 17.8265686 16.33966064 C19.30113831 17.82927698 20.77639073 19.31821784 22.25234985 20.80645752 C25.86839037 24.45556873 29.47490148 28.11386443 33.0765686 31.77716064 C35.98200732 30.46339148 38.04317919 29.05659573 40.28457642 26.79620361 C41.18505707 25.89549637 41.18505707 25.89549637 42.10372925 24.97659302 C42.73929749 24.33070221 43.37486572 23.6848114 44.0296936 23.01934814 C44.68991516 22.35629669 45.35013672 21.69324524 46.03036499 21.01010132 C48.13384684 18.89544233 50.23026002 16.77392852 52.3265686 14.65216064 C53.75319121 13.21550507 55.18026932 11.77930167 56.6078186 10.34356689 C60.10270521 6.8266526 63.59126922 3.30357517 67.0765686 -0.22283936 C70.60001504 1.43577944 72.87558738 3.34373373 75.6234436 6.12872314 C76.46777954 6.97950439 77.31211548 7.83028564 78.18203735 8.70684814 C79.49108032 10.04102783 79.49108032 10.04102783 80.8265686 11.40216064 C81.71473267 12.29934814 82.60289673 13.19653564 83.51797485 14.12091064 C85.7087383 16.33523068 87.89469624 18.55408499 90.0765686 20.77716064 C86.11284335 25.52801932 81.97862079 30.01329176 77.5843811 34.36700439 C76.99357758 34.95639297 76.40277405 35.54578156 75.79406738 36.1530304 C73.93226456 38.00929792 72.06699116 39.86203149 70.2015686 41.71466064 C68.9278985 42.98330737 67.65445889 44.25218555 66.3812561 45.52130127 C63.28234817 48.60926619 60.18032559 51.69406993 57.0765686 54.77716064 C61.04029385 59.52801932 65.17451642 64.01329176 69.5687561 68.36700439 C70.15955963 68.95639297 70.75036316 69.54578156 71.35906982 70.1530304 C73.22087264 72.00929792 75.08614605 73.86203149 76.9515686 75.71466064 C78.22523871 76.98330737 79.49867832 78.25218555 80.7718811 79.52130127 C83.87078904 82.60926619 86.97281161 85.69406993 90.0765686 88.77716064 C88.56280779 92.3448035 86.47143731 94.61422352 83.7250061 97.32403564 C82.87422485 98.16837158 82.0234436 99.01270752 81.1468811 99.88262939 C79.81270142 101.19167236 79.81270142 101.19167236 78.4515686 102.52716064 C77.5543811 103.41532471 76.6571936 104.30348877 75.7328186 105.21856689 C73.51849856 107.40933034 71.29964425 109.59528828 69.0765686 111.77716064 C64.32570993 107.8134354 59.84043748 103.67921283 55.48672485 99.28497314 C54.89733627 98.69416962 54.30794769 98.10336609 53.70069885 97.49465942 C51.84443133 95.63285661 49.99169776 93.7675832 48.1390686 91.90216064 C46.87042188 90.62849054 45.6015437 89.35505093 44.33242798 88.08184814 C41.24446306 84.98294021 38.15965931 81.88091763 35.0765686 78.77716064 C32.12391749 80.10710447 30.05306644 81.55495381 27.77676392 83.84991455 C27.15642273 84.4704068 26.53608154 85.09089905 25.89694214 85.73019409 C24.91077911 86.73184097 24.91077911 86.73184097 23.9046936 87.75372314 C22.8810672 88.78159439 22.8810672 88.78159439 21.83676147 89.83023071 C19.66195262 92.0162191 17.49420788 94.20906493 15.3265686 96.40216064 C13.85176871 97.88699319 12.37651355 99.37137371 10.90078735 100.85528564 C7.28741412 104.49068975 3.68036007 108.13225888 0.0765686 111.77716064 C-3.69015296 108.59313976 -7.41345731 105.41554158 -10.88827515 101.90997314 C-11.54247437 101.25255127 -12.19667358 100.59512939 -12.87069702 99.91778564 C-13.52747437 99.25262939 -14.18425171 98.58747314 -14.8609314 97.90216064 C-15.54477905 97.21380127 -16.22862671 96.52544189 -16.93319702 95.81622314 C-18.59894604 94.13882553 -20.2622936 92.45912274 -21.9234314 90.77716064 C-20.59348757 87.82450953 -19.14563823 85.75365848 -16.85067749 83.47735596 C-16.23018524 82.85701477 -15.60969299 82.23667358 -14.97039795 81.59753418 C-14.30263336 80.94009216 -13.63486877 80.28265015 -12.9468689 79.60528564 C-11.91899765 78.58165924 -11.91899765 78.58165924 -10.87036133 77.53735352 C-8.68437294 75.36254466 -6.49152711 73.19479992 -4.2984314 71.02716064 C-2.81359885 69.55236075 -1.32921833 68.07710559 0.1546936 66.60137939 C3.7900977 62.98800616 7.43166684 59.38095211 11.0765686 55.77716064 C7.11284335 51.02630197 2.97862079 46.54102953 -1.4156189 42.18731689 C-2.30182419 41.30323402 -2.30182419 41.30323402 -3.20593262 40.40129089 C-5.06773544 38.54502337 -6.93300884 36.6922898 -8.7984314 34.83966064 C-10.0721015 33.57101392 -11.34554111 32.30213574 -12.6187439 31.03302002 C-15.71765183 27.9450551 -18.81967441 24.86025136 -21.9234314 21.77716064 C-19.56021034 16.3380621 -15.16795835 12.61319835 -11.0484314 8.46466064 C-10.23245483 7.61581299 -9.41647827 6.76696533 -8.57577515 5.89239502 C-7.78557983 5.09510986 -6.99538452 4.29782471 -6.1812439 3.47637939 C-5.46081909 2.7425 -4.74039429 2.00862061 -3.99813843 1.25250244 C-1.9234314 -0.22283936 -1.9234314 -0.22283936 0 0 Z " fill="#FF4411" transform="translate(41.923431396484375,380.22283935546875)"/>
<path d="M0 0 C4.75085867 3.96372525 9.23613112 8.09794782 13.58984375 12.4921875 C14.47392662 13.37839279 14.47392662 13.37839279 15.37586975 14.28250122 C17.23213727 16.14430404 19.08487085 18.00957745 20.9375 19.875 C22.20614672 21.14867011 23.4750249 22.42210971 24.74414062 23.6953125 C27.83210554 26.79422043 30.91690929 29.89624301 34 33 C36.95265112 31.67005617 39.02350216 30.22220684 41.29980469 27.92724609 C41.92014587 27.30675385 42.54048706 26.6862616 43.17962646 26.04696655 C43.83706848 25.37920197 44.4945105 24.71143738 45.171875 24.0234375 C46.1955014 22.99556625 46.1955014 22.99556625 47.23980713 21.94692993 C49.41461598 19.76094155 51.58236072 17.56809571 53.75 15.375 C55.2247999 13.89016745 56.70005506 12.40578694 58.17578125 10.921875 C61.78915448 7.2864709 65.39620853 3.64490176 69 0 C72.76672156 3.18402088 76.49002591 6.36161906 79.96484375 9.8671875 C80.61904297 10.52460938 81.27324219 11.18203125 81.94726562 11.859375 C82.60404297 12.52453125 83.26082031 13.1896875 83.9375 13.875 C84.62134766 14.56335937 85.30519531 15.25171875 86.00976562 15.9609375 C87.67551464 17.63833511 89.3388622 19.31803791 91 21 C89.67005617 23.95265112 88.22220684 26.02350216 85.92724609 28.29980469 C85.30675385 28.92014587 84.6862616 29.54048706 84.04696655 30.17962646 C83.37920197 30.83706848 82.71143738 31.4945105 82.0234375 32.171875 C81.33819 32.8542926 80.6529425 33.53671021 79.94692993 34.23980713 C77.76094155 36.41461598 75.56809571 38.58236072 73.375 40.75 C71.89016745 42.2247999 70.40578694 43.70005506 68.921875 45.17578125 C65.2864709 48.78915448 61.64490176 52.39620853 58 56 C61.96372525 60.75085867 66.09794782 65.23613112 70.4921875 69.58984375 C71.08299103 70.17923233 71.67379456 70.76862091 72.28250122 71.37586975 C74.14430404 73.23213727 76.00957745 75.08487085 77.875 76.9375 C79.14867011 78.20614672 80.42210971 79.4750249 81.6953125 80.74414062 C84.79422043 83.83210554 87.89624301 86.91690929 91 90 C88.63677895 95.43909855 84.24452695 99.1639623 80.125 103.3125 C79.30902344 104.16134766 78.49304688 105.01019531 77.65234375 105.88476562 C76.46705078 107.08069336 76.46705078 107.08069336 75.2578125 108.30078125 C74.5373877 109.03466064 73.81696289 109.76854004 73.07470703 110.5246582 C71 112 71 112 69.0765686 111.77716064 C66.68206142 110.88101074 65.49221125 109.8548204 63.70019531 108.04077148 C63.07985413 107.4202037 62.45951294 106.79963593 61.82037354 106.16026306 C61.16293152 105.48733719 60.5054895 104.81441132 59.828125 104.12109375 C59.1457074 103.4344313 58.46328979 102.74776886 57.76019287 102.04029846 C55.58298804 99.84630585 53.41644719 97.64211084 51.25 95.4375 C49.77543029 93.94788366 48.30017787 92.4589428 46.82421875 90.97070312 C43.20817824 87.32159192 39.60166712 83.66329621 36 80 C33.09456128 81.31376917 31.03338941 82.72056492 28.79199219 84.98095703 C27.89151154 85.88166428 27.89151154 85.88166428 26.97283936 86.80056763 C26.33727112 87.44645844 25.70170288 88.09234924 25.046875 88.7578125 C24.38665344 89.42086395 23.72643188 90.08391541 23.04620361 90.76705933 C20.94272176 92.88171832 18.84630858 95.00323212 16.75 97.125 C15.32337739 98.56165557 13.89629928 99.99785898 12.46875 101.43359375 C8.97386339 104.95050804 5.48529938 108.47358547 2 112 C-1.52344644 110.3413812 -3.79901878 108.43342692 -6.546875 105.6484375 C-7.39121094 104.79765625 -8.23554688 103.946875 -9.10546875 103.0703125 C-9.97816406 102.18085937 -10.85085938 101.29140625 -11.75 100.375 C-13.08224609 99.02921875 -13.08224609 99.02921875 -14.44140625 97.65625 C-16.63216969 95.44192996 -18.81812763 93.22307565 -21 91 C-17.03627475 86.24914133 -12.90205218 81.76386888 -8.5078125 77.41015625 C-7.62160721 76.52607338 -7.62160721 76.52607338 -6.71749878 75.62413025 C-4.85569596 73.76786273 -2.99042255 71.91512915 -1.125 70.0625 C0.14867011 68.79385328 1.42210971 67.5249751 2.6953125 66.25585938 C5.79422043 63.16789446 8.89624301 60.08309071 12 57 C8.03627475 52.24914133 3.90205218 47.76386888 -0.4921875 43.41015625 C-1.37839279 42.52607338 -1.37839279 42.52607338 -2.28250122 41.62413025 C-4.14430404 39.76786273 -6.00957745 37.91512915 -7.875 36.0625 C-9.14867011 34.79385328 -10.42210971 33.5249751 -11.6953125 32.25585938 C-14.79422043 29.16789446 -17.89624301 26.08309071 -21 23 C-19.48623919 19.43235715 -17.39486871 17.16293713 -14.6484375 14.453125 C-13.79765625 13.60878906 -12.946875 12.76445313 -12.0703125 11.89453125 C-11.18085938 11.02183594 -10.29140625 10.14914063 -9.375 9.25 C-8.4778125 8.36183594 -7.580625 7.47367188 -6.65625 6.55859375 C-4.44192996 4.36783031 -2.22307565 2.18187237 0 0 Z " fill="#1589FC" transform="translate(400,20)"/>
<path d="M0 0 C4.75085867 3.96372525 9.23613112 8.09794782 13.58984375 12.4921875 C14.47392662 13.37839279 14.47392662 13.37839279 15.37586975 14.28250122 C17.23213727 16.14430404 19.08487085 18.00957745 20.9375 19.875 C22.20614672 21.14867011 23.4750249 22.42210971 24.74414062 23.6953125 C27.83210554 26.79422043 30.91690929 29.89624301 34 33 C38.75085867 29.03627475 43.23613112 24.90205218 47.58984375 20.5078125 C48.47392662 19.62160721 48.47392662 19.62160721 49.37586975 18.71749878 C51.23213727 16.85569596 53.08487085 14.99042255 54.9375 13.125 C56.20614672 11.85132989 57.4750249 10.57789029 58.74414062 9.3046875 C61.83210554 6.20577957 64.91690929 3.10375699 68 0 C71.56764285 1.51376081 73.83706287 3.60513129 76.546875 6.3515625 C77.39121094 7.20234375 78.23554687 8.053125 79.10546875 8.9296875 C80.41451172 10.26386719 80.41451172 10.26386719 81.75 11.625 C82.63816406 12.5221875 83.52632813 13.419375 84.44140625 14.34375 C86.63216969 16.55807004 88.81812763 18.77692435 91 21 C87.03627475 25.75085867 82.90205218 30.23613112 78.5078125 34.58984375 C77.91700897 35.17923233 77.32620544 35.76862091 76.71749878 36.37586975 C74.85569596 38.23213727 72.99042255 40.08487085 71.125 41.9375 C69.85132989 43.20614672 68.57789029 44.4750249 67.3046875 45.74414062 C64.20577957 48.83210554 61.10375699 51.91690929 58 55 C59.32994383 57.95265112 60.77779316 60.02350216 63.07275391 62.29980469 C63.69324615 62.92014587 64.3137384 63.54048706 64.95303345 64.17962646 C65.62079803 64.83706848 66.28856262 65.4945105 66.9765625 66.171875 C68.00443375 67.1955014 68.00443375 67.1955014 69.05307007 68.23980713 C71.23905845 70.41461598 73.43190429 72.58236072 75.625 74.75 C77.10983255 76.2247999 78.59421306 77.70005506 80.078125 79.17578125 C83.7135291 82.78915448 87.35509824 86.39620853 91 90 C87.81597912 93.76672156 84.63838094 97.49002591 81.1328125 100.96484375 C80.47539063 101.61904297 79.81796875 102.27324219 79.140625 102.94726562 C78.14289063 103.93243164 78.14289063 103.93243164 77.125 104.9375 C76.43664062 105.62134766 75.74828125 106.30519531 75.0390625 107.00976562 C73.36166489 108.67551464 71.68196209 110.3388622 70 112 C67.04734888 110.67005617 64.97649784 109.22220684 62.70019531 106.92724609 C62.07985413 106.30675385 61.45951294 105.6862616 60.82037354 105.04696655 C60.16293152 104.37920197 59.5054895 103.71143738 58.828125 103.0234375 C58.1457074 102.33819 57.46328979 101.6529425 56.76019287 100.94692993 C54.58538402 98.76094155 52.41763928 96.56809571 50.25 94.375 C48.7752001 92.89016745 47.29994494 91.40578694 45.82421875 89.921875 C42.21084552 86.2864709 38.60379147 82.64490176 35 79 C30.24914133 82.96372525 25.76386888 87.09794782 21.41015625 91.4921875 C20.82076767 92.08299103 20.23137909 92.67379456 19.62413025 93.28250122 C17.76786273 95.14430404 15.91512915 97.00957745 14.0625 98.875 C12.79385328 100.14867011 11.5249751 101.42210971 10.25585938 102.6953125 C7.16789446 105.79422043 4.08309071 108.89624301 1 112 C-2.76672156 108.81597912 -6.49002591 105.63838094 -9.96484375 102.1328125 C-10.61904297 101.47539062 -11.27324219 100.81796875 -11.94726562 100.140625 C-12.60404297 99.47546875 -13.26082031 98.8103125 -13.9375 98.125 C-14.62134766 97.43664062 -15.30519531 96.74828125 -16.00976562 96.0390625 C-17.67551464 94.36166489 -19.3388622 92.68196209 -21 91 C-19.68623083 88.09456128 -18.27943508 86.03338941 -16.01904297 83.79199219 C-15.41857147 83.19167175 -14.81809998 82.59135132 -14.19943237 81.97283936 C-13.55354156 81.33727112 -12.90765076 80.70170288 -12.2421875 80.046875 C-11.57913605 79.38665344 -10.91608459 78.72643188 -10.23294067 78.04620361 C-8.11828168 75.94272176 -5.99676788 73.84630858 -3.875 71.75 C-2.43834443 70.32337739 -1.00214102 68.89629928 0.43359375 67.46875 C3.95050804 63.97386339 7.47358547 60.48529938 11 57 C9.68623083 54.09456128 8.27943508 52.03338941 6.01904297 49.79199219 C5.11833572 48.89151154 5.11833572 48.89151154 4.19943237 47.97283936 C3.55354156 47.33727112 2.90765076 46.70170288 2.2421875 46.046875 C1.57913605 45.38665344 0.91608459 44.72643188 0.23294067 44.04620361 C-1.88171832 41.94272176 -4.00323212 39.84630858 -6.125 37.75 C-7.56165557 36.32337739 -8.99785898 34.89629928 -10.43359375 33.46875 C-13.95050804 29.97386339 -17.47358547 26.48529938 -21 23 C-19.3413812 19.47655356 -17.43342692 17.20098122 -14.6484375 14.453125 C-13.79765625 13.60878906 -12.946875 12.76445312 -12.0703125 11.89453125 C-11.18085938 11.02183594 -10.29140625 10.14914063 -9.375 9.25 C-8.4778125 8.36183594 -7.580625 7.47367188 -6.65625 6.55859375 C-4.44192996 4.36783031 -2.22307565 2.18187237 0 0 Z " fill="#16ABE8" transform="translate(41,200)"/>
<path d="M0 0 C2.95265112 1.32994383 5.02350216 2.77779316 7.29980469 5.07275391 C7.92014587 5.69324615 8.54048706 6.3137384 9.17962646 6.95303345 C9.83706848 7.62079803 10.4945105 8.28856262 11.171875 8.9765625 C12.1955014 10.00443375 12.1955014 10.00443375 13.23980713 11.05307007 C15.41461598 13.23905845 17.58236072 15.43190429 19.75 17.625 C21.2247999 19.10983255 22.70005506 20.59421306 24.17578125 22.078125 C27.78915448 25.7135291 31.39620853 29.35509824 35 33 C39.75085867 29.03627475 44.23613112 24.90205218 48.58984375 20.5078125 C49.47392662 19.62160721 49.47392662 19.62160721 50.37586975 18.71749878 C52.23213727 16.85569596 54.08487085 14.99042255 55.9375 13.125 C57.20614672 11.85132989 58.4750249 10.57789029 59.74414062 9.3046875 C62.83210554 6.20577957 65.91690929 3.10375699 69 0 C72.76672156 3.18402088 76.49002591 6.36161906 79.96484375 9.8671875 C80.61904297 10.52460938 81.27324219 11.18203125 81.94726562 11.859375 C82.60404297 12.52453125 83.26082031 13.1896875 83.9375 13.875 C84.62134766 14.56335938 85.30519531 15.25171875 86.00976562 15.9609375 C87.67551464 17.63833511 89.3388622 19.31803791 91 21 C89.68623083 23.90543872 88.27943508 25.96661059 86.01904297 28.20800781 C85.41857147 28.80832825 84.81809998 29.40864868 84.19943237 30.02716064 C83.55354156 30.66272888 82.90765076 31.29829712 82.2421875 31.953125 C81.57913605 32.61334656 80.91608459 33.27356812 80.23294067 33.95379639 C78.11828168 36.05727824 75.99676788 38.15369142 73.875 40.25 C72.43834443 41.67662261 71.00214102 43.10370072 69.56640625 44.53125 C66.04949196 48.02613661 62.52641453 51.51470062 59 55 C60.31376917 57.90543872 61.72056492 59.96661059 63.98095703 62.20800781 C64.88166428 63.10848846 64.88166428 63.10848846 65.80056763 64.02716064 C66.44645844 64.66272888 67.09234924 65.29829712 67.7578125 65.953125 C68.42086395 66.61334656 69.08391541 67.27356812 69.76705933 67.95379639 C71.88171832 70.05727824 74.00323212 72.15369142 76.125 74.25 C77.56165557 75.67662261 78.99785898 77.10370072 80.43359375 78.53125 C83.95050804 82.02613661 87.47358547 85.51470062 91 89 C89.3413812 92.52344644 87.43342692 94.79901878 84.6484375 97.546875 C83.79765625 98.39121094 82.946875 99.23554688 82.0703125 100.10546875 C80.73613281 101.41451172 80.73613281 101.41451172 79.375 102.75 C78.4778125 103.63816406 77.580625 104.52632813 76.65625 105.44140625 C74.44192996 107.63216969 72.22307565 109.81812763 70 112 C65.24914133 108.03627475 60.76386888 103.90205218 56.41015625 99.5078125 C55.82076767 98.91700897 55.23137909 98.32620544 54.62413025 97.71749878 C52.76786273 95.85569596 50.91512915 93.99042255 49.0625 92.125 C47.79385328 90.85132989 46.5249751 89.57789029 45.25585938 88.3046875 C42.16789446 85.20577957 39.08309071 82.10375699 36 79 C31.24914133 82.96372525 26.76386888 87.09794782 22.41015625 91.4921875 C21.82076767 92.08299103 21.23137909 92.67379456 20.62413025 93.28250122 C18.76786273 95.14430404 16.91512915 97.00957745 15.0625 98.875 C13.79385328 100.14867011 12.5249751 101.42210971 11.25585938 102.6953125 C8.16789446 105.79422043 5.08309071 108.89624301 2 112 C-1.56764285 110.48623919 -3.83706287 108.39486871 -6.546875 105.6484375 C-7.39121094 104.79765625 -8.23554688 103.946875 -9.10546875 103.0703125 C-9.97816406 102.18085938 -10.85085938 101.29140625 -11.75 100.375 C-13.08224609 99.02921875 -13.08224609 99.02921875 -14.44140625 97.65625 C-16.63216969 95.44192996 -18.81812763 93.22307565 -21 91 C-17.03627475 86.24914133 -12.90205218 81.76386888 -8.5078125 77.41015625 C-7.62160721 76.52607338 -7.62160721 76.52607338 -6.71749878 75.62413025 C-4.85569596 73.76786273 -2.99042255 71.91512915 -1.125 70.0625 C0.14867011 68.79385328 1.42210971 67.5249751 2.6953125 66.25585938 C5.79422043 63.16789446 8.89624301 60.08309071 12 57 C10.67005617 54.04734888 9.22220684 51.97649784 6.92724609 49.70019531 C6.30675385 49.07985413 5.6862616 48.45951294 5.04696655 47.82037354 C4.37920197 47.16293152 3.71143738 46.5054895 3.0234375 45.828125 C2.33819 45.1457074 1.6529425 44.46328979 0.94692993 43.76019287 C-1.23905845 41.58538402 -3.43190429 39.41763928 -5.625 37.25 C-7.10983255 35.7752001 -8.59421306 34.29994494 -10.078125 32.82421875 C-13.7135291 29.21084552 -17.35509824 25.60379147 -21 22 C-17.81597912 18.23327844 -14.63838094 14.50997409 -11.1328125 11.03515625 C-10.47539062 10.38095703 -9.81796875 9.72675781 -9.140625 9.05273438 C-8.47546875 8.39595703 -7.8103125 7.73917969 -7.125 7.0625 C-6.43664062 6.37865234 -5.74828125 5.69480469 -5.0390625 4.99023438 C-3.36166489 3.32448536 -1.68196209 1.6611378 0 0 Z " fill="#1589FC" transform="translate(400,200)"/>
<path d="M0 0 C2.95265112 1.32994383 5.02350216 2.77779316 7.29980469 5.07275391 C7.92014587 5.69324615 8.54048706 6.3137384 9.17962646 6.95303345 C9.83706848 7.62079803 10.4945105 8.28856262 11.171875 8.9765625 C12.1955014 10.00443375 12.1955014 10.00443375 13.23980713 11.05307007 C15.41461598 13.23905845 17.58236072 15.43190429 19.75 17.625 C21.2247999 19.10983255 22.70005506 20.59421306 24.17578125 22.078125 C27.78915448 25.7135291 31.39620853 29.35509824 35 33 C39.75085867 29.03627475 44.23613112 24.90205218 48.58984375 20.5078125 C49.47392662 19.62160721 49.47392662 19.62160721 50.37586975 18.71749878 C52.23213727 16.85569596 54.08487085 14.99042255 55.9375 13.125 C57.20614672 11.85132989 58.4750249 10.57789029 59.74414062 9.3046875 C62.83210554 6.20577957 65.91690929 3.10375699 69 0 C74.43909855 2.36322105 78.1639623 6.75547305 82.3125 10.875 C83.16134766 11.69097656 84.01019531 12.50695312 84.88476562 13.34765625 C86.08069336 14.53294922 86.08069336 14.53294922 87.30078125 15.7421875 C88.03466064 16.4626123 88.76854004 17.18303711 89.5246582 17.92529297 C91 20 91 20 90.77716064 21.9234314 C89.88101074 24.31793858 88.8548204 25.50778875 87.04077148 27.29980469 C86.4202037 27.92014587 85.79963593 28.54048706 85.16026306 29.17962646 C84.48733719 29.83706848 83.81441132 30.4945105 83.12109375 31.171875 C82.4344313 31.8542926 81.74776886 32.53671021 81.04029846 33.23980713 C78.84630585 35.41701196 76.64211084 37.58355281 74.4375 39.75 C72.94788366 41.22456971 71.4589428 42.69982213 69.97070312 44.17578125 C66.32159192 47.79182176 62.66329621 51.39833288 59 55 C60.31376917 57.90543872 61.72056492 59.96661059 63.98095703 62.20800781 C64.88166428 63.10848846 64.88166428 63.10848846 65.80056763 64.02716064 C66.44645844 64.66272888 67.09234924 65.29829712 67.7578125 65.953125 C68.42086395 66.61334656 69.08391541 67.27356812 69.76705933 67.95379639 C71.88171832 70.05727824 74.00323212 72.15369142 76.125 74.25 C77.56165557 75.67662261 78.99785898 77.10370072 80.43359375 78.53125 C83.95050804 82.02613661 87.47358547 85.51470062 91 89 C89.3413812 92.52344644 87.43342692 94.79901878 84.6484375 97.546875 C83.79765625 98.39121094 82.946875 99.23554688 82.0703125 100.10546875 C80.73613281 101.41451172 80.73613281 101.41451172 79.375 102.75 C78.4778125 103.63816406 77.580625 104.52632813 76.65625 105.44140625 C74.44192996 107.63216969 72.22307565 109.81812763 70 112 C65.24914133 108.03627475 60.76386888 103.90205218 56.41015625 99.5078125 C55.82076767 98.91700897 55.23137909 98.32620544 54.62413025 97.71749878 C52.76786273 95.85569596 50.91512915 93.99042255 49.0625 92.125 C47.79385328 90.85132989 46.5249751 89.57789029 45.25585938 88.3046875 C42.16789446 85.20577957 39.08309071 82.10375699 36 79 C31.24914133 82.96372525 26.76386888 87.09794782 22.41015625 91.4921875 C21.82076767 92.08299103 21.23137909 92.67379456 20.62413025 93.28250122 C18.76786273 95.14430404 16.91512915 97.00957745 15.0625 98.875 C13.79385328 100.14867011 12.5249751 101.42210971 11.25585938 102.6953125 C8.16789446 105.79422043 5.08309071 108.89624301 2 112 C-1.76672156 108.81597912 -5.49002591 105.63838094 -8.96484375 102.1328125 C-9.61904297 101.47539062 -10.27324219 100.81796875 -10.94726562 100.140625 C-11.60404297 99.47546875 -12.26082031 98.8103125 -12.9375 98.125 C-13.62134766 97.43664062 -14.30519531 96.74828125 -15.00976562 96.0390625 C-16.67551464 94.36166489 -18.3388622 92.68196209 -20 91 C-18.68623083 88.09456128 -17.27943508 86.03338941 -15.01904297 83.79199219 C-14.41857147 83.19167175 -13.81809998 82.59135132 -13.19943237 81.97283936 C-12.55354156 81.33727112 -11.90765076 80.70170288 -11.2421875 80.046875 C-10.57913605 79.38665344 -9.91608459 78.72643188 -9.23294067 78.04620361 C-7.11828168 75.94272176 -4.99676788 73.84630858 -2.875 71.75 C-1.43834443 70.32337739 -0.00214102 68.89629928 1.43359375 67.46875 C4.95050804 63.97386339 8.47358547 60.48529938 12 57 C10.68808355 54.08871353 9.29885167 52.06682871 7.00317383 49.85546875 C6.39947464 49.26805908 5.79577545 48.68064941 5.17378235 48.07543945 C4.52475449 47.45241943 3.87572662 46.82939941 3.20703125 46.1875 C1.84137755 44.85199115 0.47615597 43.51604032 -0.88867188 42.1796875 C-3.04337393 40.08092933 -5.20171723 37.98630332 -7.36791992 35.89941406 C-9.45816048 33.88144687 -11.5326543 31.84834126 -13.60546875 29.8125 C-14.58811958 28.87796997 -14.58811958 28.87796997 -15.59062195 27.92456055 C-16.18486465 27.33715088 -16.77910736 26.74974121 -17.39135742 26.14453125 C-17.9204924 25.63253174 -18.44962738 25.12053223 -18.99479675 24.59301758 C-20 23 -20 23 -19.77914429 20.94085693 C-18.65960448 18.15207103 -16.88578792 16.55030869 -14.74609375 14.453125 C-13.89208984 13.60878906 -13.03808594 12.76445312 -12.15820312 11.89453125 C-11.26037109 11.02183594 -10.36253906 10.14914062 -9.4375 9.25 C-8.53580078 8.36183594 -7.63410156 7.47367187 -6.70507812 6.55859375 C-4.47662902 4.36551685 -2.24148407 2.17973956 0 0 Z " fill="#158AFB" transform="translate(220,380)"/>
<path d="M0 0 C17.75035321 0 31.60915669 5.74669902 44.26953125 18.14453125 C56.26381833 30.68791302 61.59757488 46.00341757 61.31640625 63.2109375 C59.88423901 80.36158228 52.82484986 94.62663623 40.5 106.625 C30.94865772 114.52826753 18.32253662 119.85633974 6 121 C4.35 120.67 2.7 120.34 1 120 C1 110.1 1 100.2 1 90 C5.29 88.68 9.58 87.36 14 86 C21.36196765 81.50101977 25.2480817 76.58835746 28.3125 68.5625 C30.11858667 59.20368728 28.79771014 51.1409781 23.71484375 42.921875 C17.39172902 34.81983384 9.89509108 32.97901822 0 31 C0 20.77 0 10.54 0 0 Z " fill="#C01700" transform="translate(255,16)"/>
<path d="M0 0 C0 10.23 0 20.46 0 31 C-3.3 31.66 -6.6 32.32 -10 33 C-18.65041337 37.45241865 -23.98806897 43.18325038 -27.3046875 52.39453125 C-29.47787834 60.53789245 -28.05851886 67.69466606 -24 75 C-17.41227843 84.45762007 -11.48962269 86.70207546 0 89 C0 99.23 0 109.46 0 120 C-14.90910089 120 -25.02424112 116.33905244 -37 108 C-38.0725 107.2575 -39.145 106.515 -40.25 105.75 C-52.81367625 93.18632375 -59.83099514 77.97830937 -60.4375 60.1875 C-60.00676337 43.37004379 -53.67989024 28.17146812 -42 16 C-34.72826606 9.54195867 -27.19687176 5.11802775 -18 2 C-17.28070313 1.75507813 -16.56140625 1.51015625 -15.8203125 1.2578125 C-10.28509083 -0.36496333 -6.11663777 0 0 0 Z " fill="#FF4311" transform="translate(255,196)"/>
<path d="M0 0 C13.94843861 6.63748048 30.17506408 21.34831561 36.11010742 35.68078613 C40.40430154 49.27546198 40.59584661 65.76024568 35 79 C27.14829593 92.46778526 14.25628407 102.6971564 2 112 C-1.76672156 108.81597912 -5.49002591 105.63838094 -8.96484375 102.1328125 C-9.61904297 101.47539062 -10.27324219 100.81796875 -10.94726562 100.140625 C-11.60404297 99.47546875 -12.26082031 98.8103125 -12.9375 98.125 C-13.62134766 97.43664062 -14.30519531 96.74828125 -15.00976562 96.0390625 C-16.67551464 94.36166489 -18.3388622 92.68196209 -20 91 C-18.68623083 88.09456128 -17.27943508 86.03338941 -15.01904297 83.79199219 C-14.41857147 83.19167175 -13.81809998 82.59135132 -13.19943237 81.97283936 C-12.55354156 81.33727112 -11.90765076 80.70170288 -11.2421875 80.046875 C-10.57913605 79.38665344 -9.91608459 78.72643188 -9.23294067 78.04620361 C-7.11828168 75.94272176 -4.99676788 73.84630858 -2.875 71.75 C-1.43834443 70.32337739 -0.00214102 68.89629928 1.43359375 67.46875 C4.95050804 63.97386339 8.47358547 60.48529938 12 57 C10.68808355 54.08871353 9.29885167 52.06682871 7.00317383 49.85546875 C6.39947464 49.26805908 5.79577545 48.68064941 5.17378235 48.07543945 C4.52475449 47.45241943 3.87572662 46.82939941 3.20703125 46.1875 C1.84137755 44.85199115 0.47615597 43.51604032 -0.88867188 42.1796875 C-3.04337393 40.08092933 -5.20171723 37.98630332 -7.36791992 35.89941406 C-9.45816048 33.88144687 -11.5326543 31.84834126 -13.60546875 29.8125 C-14.58811958 28.87796997 -14.58811958 28.87796997 -15.59062195 27.92456055 C-16.18486465 27.33715088 -16.77910736 26.74974121 -17.39135742 26.14453125 C-17.9204924 25.63253174 -18.44962738 25.12053223 -18.99479675 24.59301758 C-20 23 -20 23 -19.77914429 20.94085693 C-18.65960448 18.15207103 -16.88578792 16.55030869 -14.74609375 14.453125 C-13.89208984 13.60878906 -13.03808594 12.76445312 -12.15820312 11.89453125 C-11.26037109 11.02183594 -10.36253906 10.14914062 -9.4375 9.25 C-8.53580078 8.36183594 -7.63410156 7.47367187 -6.70507812 6.55859375 C-4.47662902 4.36551685 -2.24148407 2.17973956 0 0 Z " fill="#16ABE8" transform="translate(220,380)"/>
</svg>
